<svg width="235" height="64" viewBox="0 0 235 64" fill="none" xmlns="http://www.w3.org/2000/svg">
<path d="M77.8312 37.2859H74.4178L78.4949 23.9882H82.6667V24.0593L86.7319 37.2859H83.3541L82.6549 34.7378H78.5423L77.8312 37.2859ZM79.3008 32H81.849L80.5927 27.3422L79.3008 32Z" fill="black"/>
<path d="M161.09 26.9985H168.533V29.3688H164.018V30.9333H168.178V33.3037H164.018V35.0222H168.533V37.3925H161.09V26.9985Z" fill="black"/>
<path d="M174.839 34.5363H173.144V37.2859H170.216V26.9985H175.123C177.991 26.9985 178.904 28.1007 178.904 30.0681V31.4548C178.952 31.935 178.868 32.4193 178.658 32.8544C178.449 33.2894 178.124 33.6582 177.719 33.92L179.97 37.2859H176.711L174.839 34.5363ZM175.04 29.357H173.144V32.237H175.04C175.775 32.237 176.047 31.9407 176.047 31.3481V30.1629C176.047 29.6296 175.775 29.357 175.04 29.357Z" fill="black"/>
<path d="M183.467 31.0163V37.2859H180.693V26.9985H184.178L187.603 33.2918V26.9985H190.376V37.2859H186.892L183.467 31.0163Z" fill="black"/>
<path d="M191.727 36.7407L192.201 34.56C193.27 34.8668 194.373 35.0342 195.484 35.0578C196.575 35.0578 196.8 34.8444 196.8 34.24C196.8 33.6355 196.681 33.4341 194.821 33.1378C192.13 32.6993 191.846 31.6563 191.846 29.7718C191.846 27.52 193.221 26.7615 195.923 26.7615C197.121 26.7694 198.314 26.9166 199.478 27.2L199.111 29.5467C198.071 29.3235 197.011 29.2044 195.947 29.1911C194.998 29.1911 194.761 29.3333 194.761 29.9022C194.761 30.4711 194.868 30.6963 196.622 31.0163C199.514 31.5259 199.715 32.2015 199.715 34.1452C199.715 36.3615 198.921 37.4874 195.437 37.4874C194.164 37.4751 192.906 37.2217 191.727 36.7407Z" fill="black"/>
<path d="M206.471 37.2859H203.544V29.5348H200.557V26.9985H209.458V29.5348H206.471V37.2859Z" fill="black"/>
<path d="M210.655 26.9985H218.074V29.3688H213.559V30.9333H217.719V33.3037H213.559V35.0222H218.074V37.3925H210.631L210.655 26.9985Z" fill="black"/>
<path d="M219.875 26.9985H222.815V37.2859H219.887L219.875 26.9985Z" fill="black"/>
<path d="M227.413 31.0163V37.2859H224.64V26.9985H228.124L231.55 33.2918V26.9985H234.323V37.2859H230.838L227.413 31.0163Z" fill="black"/>
<path d="M87.8459 26.9985H90.7733V34.7614H95.0874V37.2859H87.8459V26.9985Z" fill="black"/>
<path d="M96.2487 26.9985H99.188V34.7614H103.502V37.2859H96.2487V26.9985Z" fill="black"/>
<path d="M104.759 26.9985H107.686V37.2859H104.759V26.9985Z" fill="black"/>
<path d="M115.52 35.7451H111.964L111.538 37.2859H108.669L111.941 26.9985H115.496L118.779 37.2859H115.958L115.52 35.7451ZM112.592 33.4696H114.832L113.647 29.3688L112.592 33.4696Z" fill="black"/>
<path d="M122.489 31.0163V37.2859H119.704V26.9985H123.259L126.684 33.2918V26.9985H129.446V37.2859H125.961L122.489 31.0163Z" fill="black"/>
<path d="M131.069 34.1451V30.1392C131.069 27.9466 132.42 26.797 135.36 26.797C136.498 26.8079 137.633 26.927 138.749 27.1526L138.453 29.5229C137.431 29.3481 136.397 29.2569 135.36 29.2503C134.4 29.2503 133.997 29.6059 133.997 30.4355V33.8014C133.997 34.6192 134.4 34.9866 135.36 34.9866C136.397 34.9892 137.433 34.894 138.453 34.7022L138.749 37.0726C137.635 37.3086 136.499 37.4278 135.36 37.4281C132.42 37.4874 131.069 36.3377 131.069 34.1451Z" fill="black"/>
<path d="M140.409 26.9985H147.84V29.3688H143.336V30.9333H147.485V33.3037H143.336V35.0222H147.84V37.3925H140.409V26.9985Z" fill="black"/>
<path d="M159.561 26.8326V28.0178C159.563 28.5423 159.399 29.054 159.092 29.4797C158.786 29.9053 158.353 30.2233 157.855 30.3882C158.353 30.553 158.786 30.871 159.092 31.2967C159.399 31.7224 159.563 32.234 159.561 32.7585V34.0504C159.561 35.9111 158.447 37.3452 155.816 37.3452H149.558V23.9882H156.255C158.352 23.9882 159.561 25.0904 159.561 26.8326ZM152.533 29.3689H155.413C155.572 29.3794 155.73 29.3559 155.879 29.3C156.027 29.2442 156.162 29.1572 156.274 29.045C156.387 28.9328 156.474 28.7979 156.529 28.6494C156.585 28.5008 156.609 28.3421 156.598 28.1837V27.4133C156.598 26.5245 155.899 26.3467 154.963 26.3467H152.533V29.3689ZM156.634 33.1022C156.644 32.9439 156.621 32.7851 156.565 32.6366C156.509 32.488 156.422 32.3531 156.31 32.2409C156.198 32.1287 156.063 32.0418 155.914 31.9859C155.766 31.93 155.607 31.9066 155.449 31.917H152.533V34.9393H154.998C155.935 34.9393 156.634 34.7496 156.634 33.8608V33.1022Z" fill="black"/>
<path d="M0.888916 0.888916H63.1111V63.1111H0.888916V0.888916Z" fill="black"/>
<path d="M0 0V64H64V0H0ZM63.1111 63.1111H0.888889V0.888889H63.1111V63.1111ZM16.4385 31.2178H47.5496V32.7822H16.4385V31.2178ZM28.16 26.5481H23.4193L29.0844 8.04741H34.88V8.15407L40.5807 26.5481H35.84L34.8563 22.9926H29.1437L28.16 26.5481ZM30.1985 19.2H33.7541L32 12.717L30.1985 19.2ZM49.0785 8.04741V11.9348H52.0533V52.0652H49.0785V55.9526H55.9407V8.04741H49.0785ZM8.05926 8.04741V55.9526H14.9215V52.0652H11.9467V11.9348H14.9215V8.04741H8.05926ZM39.1111 41.4104V42.9867C39.1151 43.7159 38.8878 44.4277 38.4619 45.0197C38.036 45.6117 37.4334 46.0534 36.7407 46.2815C37.4344 46.5079 38.0381 46.9493 38.4642 47.5416C38.8904 48.134 39.1169 48.8466 39.1111 49.5763V51.3659C39.1111 53.9615 37.5822 55.9526 33.9081 55.9526H25.2089V37.4519H34.5126C37.44 37.4519 39.1111 38.9807 39.1111 41.4104ZM29.3452 44.9659H33.363C33.5862 44.9872 33.8114 44.9596 34.0229 44.8848C34.2343 44.8101 34.4269 44.6901 34.5872 44.5332C34.7474 44.3763 34.8715 44.1863 34.9507 43.9765C35.03 43.7667 35.0625 43.5422 35.0459 43.3185V42.2637C35.0459 41.0193 34.0741 40.7704 32.7822 40.7704H29.3452V44.9659ZM35.0459 50.157C35.0625 49.9334 35.03 49.7088 34.9507 49.499C34.8715 49.2892 34.7474 49.0992 34.5872 48.9424C34.4269 48.7855 34.2343 48.6655 34.0229 48.5907C33.8114 48.516 33.5862 48.4883 33.363 48.5096H29.3452V52.717H32.7822C34.0741 52.717 35.0459 52.4682 35.0459 51.2237V50.157Z" fill="white"/>
</svg>
