<svg width="60" height="60" viewBox="0 0 60 60" fill="none" xmlns="http://www.w3.org/2000/svg">
<rect opacity="0.199451" width="60" height="60" rx="20" fill="#F26B32"/>
<path fill-rule="evenodd" clip-rule="evenodd" d="M32.5697 23.1111V23.1111C32.408 25.1056 31.5421 26.9777 30.1267 28.3923L30.1267 28.3923C28.7114 26.9777 27.8454 25.1056 27.6838 23.1111L27.6838 23.1111C27.8458 21.1166 28.7117 19.2447 30.1267 17.8298V17.8298C31.5418 19.2447 32.4077 21.1166 32.5697 23.1111L32.5697 23.1111Z" stroke="#F26B32" stroke-width="1.71429" stroke-linecap="round" stroke-linejoin="round"/>
<path fill-rule="evenodd" clip-rule="evenodd" d="M35.9377 32.899H35.9377C34.0144 33.4512 31.9573 33.3015 30.1343 32.4765L30.1343 32.4765C30.9588 30.6528 32.4049 29.1818 34.2141 28.3262V28.3262C36.1375 27.774 38.1947 27.9241 40.0175 28.7498V28.7498C39.1933 30.5733 37.7471 32.0441 35.9377 32.899L35.9377 32.899Z" stroke="#F26B32" stroke-width="1.71429" stroke-linecap="round" stroke-linejoin="round"/>
<path fill-rule="evenodd" clip-rule="evenodd" d="M35.9377 41.0239H35.9377C34.0144 41.5762 31.9573 41.4264 30.1343 40.6014L30.1343 40.6014C30.9588 38.7778 32.4049 37.3068 34.2141 36.4512V36.4512C36.1375 35.899 38.1947 36.0491 40.0175 36.8748V36.8748C39.1933 38.6983 37.7471 40.1691 35.9377 41.0239L35.9377 41.0239Z" stroke="#F26B32" stroke-width="1.71429" stroke-linecap="round" stroke-linejoin="round"/>
<path fill-rule="evenodd" clip-rule="evenodd" d="M24.3266 32.8989H24.3266C26.2499 33.4512 28.3069 33.3015 30.13 32.4764V32.4764C29.3061 30.6528 27.8603 29.1817 26.0512 28.3262V28.3262C24.1285 27.7749 22.0723 27.925 20.25 28.7498L20.25 28.7498C21.0739 30.5724 22.5187 32.043 24.3266 32.8989L24.3266 32.8989Z" stroke="#F26B32" stroke-width="1.71429" stroke-linecap="round" stroke-linejoin="round"/>
<path fill-rule="evenodd" clip-rule="evenodd" d="M24.3266 41.0239H24.3266C26.2499 41.5762 28.3069 41.4265 30.13 40.6014V40.6014C29.3061 38.7778 27.8603 37.3067 26.0512 36.4512V36.4512C24.1285 35.8999 22.0723 36.05 20.25 36.8748L20.25 36.8748C21.0739 38.6974 22.5187 40.168 24.3266 41.0239L24.3266 41.0239Z" stroke="#F26B32" stroke-width="1.71429" stroke-linecap="round" stroke-linejoin="round"/>
<path d="M30.13 28.3966L30.1408 42.2091" stroke="#F26B32" stroke-width="1.71429" stroke-linecap="round" stroke-linejoin="round"/>
</svg>
