<svg width="14" height="8" viewBox="0 0 14 8" fill="none" xmlns="http://www.w3.org/2000/svg">
<path fill-rule="evenodd" clip-rule="evenodd" d="M13.8293 3.57172L11.0421 0.677361C10.8142 0.440829 10.4449 0.440887 10.2171 0.67749C10.1078 0.791056 10.0464 0.945056 10.0463 1.10564V2.93991C10.0463 3.02354 9.98103 3.09135 9.90048 3.09135H0.875013H0.875013C0.391757 3.09135 0 3.49816 0 4C2.11238e-08 4.50183 0.391757 4.90865 0.875013 4.90865H9.90048C9.98103 4.90865 10.0463 4.97646 10.0463 5.06009V6.89436V6.89423C10.0463 7.22879 10.3075 7.5 10.6297 7.5C10.7843 7.5 10.9326 7.43624 11.042 7.32273L13.8292 4.42837C14.0569 4.19182 14.0569 3.80837 13.8292 3.57181L13.8293 3.57172Z" fill="white"/>
</svg>
