<svg width="152" height="64" viewBox="0 0 152 64" fill="none" xmlns="http://www.w3.org/2000/svg">
<path d="M83.1193 32.497H81.4727L81.0998 30.3534C80.4474 30.198 79.7018 30.1048 78.8319 30.1048C77.6202 30.1048 76.6882 30.4776 76.0358 31.2543C75.3833 32.031 75.0416 33.2427 75.0416 34.8582C75.0416 36.5048 75.3833 37.7475 76.0668 38.6174C76.7503 39.4873 77.7134 39.9223 78.9562 39.9223C79.2979 39.9223 79.6707 39.8912 80.0125 39.8291C80.3542 39.7669 80.696 39.6737 81.0066 39.5495C81.3173 39.4252 81.5969 39.332 81.8455 39.1767C82.094 39.0524 82.3115 38.897 82.4358 38.7728L82.8707 38.4L83.7406 39.9223L83.461 40.1398C83.2746 40.2951 82.995 40.5126 82.6222 40.699C82.2804 40.9165 81.8765 41.1029 81.4416 41.2893C81.0066 41.4757 80.5717 41.631 80.0746 41.7553C79.6086 41.8796 79.1426 41.9417 78.6765 41.9417C76.6261 41.9417 75.0727 41.3203 73.9853 40.1087C72.8979 38.897 72.3698 37.2194 72.3698 35.1067C72.3698 34.0504 72.5251 33.1184 72.8358 32.2485C73.1465 31.3786 73.5814 30.633 74.1717 30.0427C74.7309 29.4213 75.4455 28.9553 76.2532 28.6135C77.061 28.2718 77.962 28.0854 78.9562 28.0854C79.2979 28.0854 79.6397 28.1165 79.9814 28.1475C80.3231 28.2097 80.6649 28.2718 81.0066 28.3339C81.3484 28.3961 81.6591 28.4893 81.9387 28.5825C82.2183 28.6757 82.4668 28.7689 82.6843 28.8621L83.2435 29.1106L83.1193 32.497Z" fill="#335DAB"/>
<path d="M86.1952 29.0796C87.9972 28.3961 89.6748 28.0854 91.1972 28.0854C92.6884 28.0854 93.8069 28.3961 94.6146 28.9864C95.3913 29.5767 95.7952 30.6019 95.7952 32V39.7048L97.8146 40.2019V41.6L93.9001 41.7242L93.3719 39.9533C92.036 41.2893 90.7001 41.9728 89.3952 41.9728C88.0904 41.9728 87.0962 41.631 86.4438 40.9786C85.7913 40.3262 85.4496 39.3941 85.4496 38.1825C85.4496 35.5728 87.3758 34.2679 91.2593 34.2679H93.2787V32.2485C93.2787 30.7262 92.4709 29.9805 90.8865 29.9805C89.9855 29.9805 89.2399 30.0737 88.6496 30.2601L88.3389 30.3534L87.9972 32.2485H86.3195L86.1952 29.0796ZM93.2476 35.8834H91.4768C90.203 35.8834 89.3331 36.0388 88.8049 36.3805C88.2768 36.7223 87.9972 37.2194 87.9972 37.9029C87.9972 38.5553 88.1525 39.0524 88.4632 39.3941C88.7739 39.7359 89.2088 39.9223 89.7991 39.9223C90.0787 39.9223 90.3894 39.8601 90.669 39.7669C90.9486 39.6737 91.2593 39.5495 91.5389 39.3941C91.8185 39.2388 92.0671 39.0834 92.2845 38.897C92.502 38.7106 92.6884 38.5553 92.8127 38.4L93.2476 37.9029V35.8834Z" fill="#335DAB"/>
<path d="M102.039 28.3339L102.226 29.732C103.406 28.6135 104.68 28.0543 106.047 28.0543C107.818 28.0543 109.185 28.6446 110.086 29.7941C111.018 30.9747 111.453 32.6213 111.453 34.765C111.453 35.8213 111.329 36.7534 111.049 37.6543C110.77 38.5242 110.335 39.2699 109.775 39.9223C109.216 40.5436 108.502 41.0407 107.632 41.4135C106.793 41.7553 105.799 41.9417 104.649 41.9417C103.935 41.9417 103.189 41.8174 102.381 41.6V45.6077L105.022 46.1048V47.5029H97.8453V46.1048L99.8647 45.6077V30.3223L97.721 29.8252V28.4271L102.039 28.3339ZM102.412 31.8446V39.4252C102.94 39.7669 103.81 39.9223 105.053 39.9223C107.57 39.9223 108.843 38.2446 108.843 34.8893C108.843 33.398 108.564 32.2485 108.036 31.3786C107.507 30.5087 106.669 30.1048 105.55 30.1048C104.898 30.1048 104.307 30.2601 103.748 30.5398C103.189 30.8194 102.754 31.2543 102.412 31.8446Z" fill="#335DAB"/>
<path d="M117.729 28.3339V39.6737L119.624 40.2951V41.6932H113.069V40.2951L115.213 39.6737V30.3534L113.069 29.8563V28.4582L117.729 28.3339ZM116.362 22.4C117.449 22.4 118.009 23.0213 118.009 24.2951C118.009 24.8233 117.822 25.2271 117.449 25.5068C117.077 25.7864 116.673 25.9417 116.269 25.9417C115.803 25.9417 115.43 25.7864 115.15 25.4757C114.871 25.165 114.715 24.7301 114.715 24.1708C114.715 23.6116 114.871 23.1767 115.181 22.866C115.492 22.5553 115.896 22.4 116.362 22.4Z" fill="#335DAB"/>
<path d="M125.465 24.7612V28.4583H129.131V30.3534H125.465V38.4621C125.465 39.4874 125.9 40.0155 126.738 40.0155C127.267 40.0155 127.919 39.7981 128.696 39.3942L129.379 40.7301C128.23 41.5689 127.049 42.0039 125.837 42.0039C124.968 42.0039 124.284 41.7243 123.756 41.1651C123.228 40.6058 122.948 39.6738 122.948 38.3379V30.3223H120.432V28.6757L122.948 28.4272V25.2583L125.465 24.7612Z" fill="#335DAB"/>
<path d="M131.772 29.0796C133.574 28.3961 135.251 28.0854 136.774 28.0854C138.265 28.0854 139.383 28.3961 140.191 28.9864C140.968 29.5767 141.372 30.6019 141.372 32V39.7048L143.391 40.2019V41.6L139.476 41.7242L138.948 39.9533C137.612 41.2893 136.276 41.9728 134.972 41.9728C133.667 41.9728 132.673 41.631 132.02 40.9786C131.368 40.3262 131.026 39.3941 131.026 38.1825C131.026 35.5728 132.952 34.2679 136.836 34.2679H138.855V32.2485C138.855 30.7262 138.047 29.9805 136.463 29.9805C135.562 29.9805 134.816 30.0737 134.226 30.2601L133.915 30.3534L133.574 32.2485H131.927L131.772 29.0796ZM138.855 35.8834H137.084C135.81 35.8834 134.941 36.0388 134.412 36.3805C133.884 36.7223 133.605 37.2194 133.605 37.9029C133.605 38.5553 133.76 39.0524 134.071 39.3941C134.381 39.7359 134.816 39.9223 135.407 39.9223C135.686 39.9223 135.997 39.8601 136.276 39.7669C136.556 39.6737 136.867 39.5495 137.146 39.3941C137.426 39.2388 137.675 39.0834 137.892 38.897C138.109 38.7106 138.296 38.5553 138.42 38.4L138.855 37.9029V35.8834Z" fill="#335DAB"/>
<path d="M149.356 22.2757V39.6738L151.872 40.2951V41.6932H144.634V40.2951L146.777 39.6738V24.2951L144.634 23.798V22.4L149.356 22.2757Z" fill="#335DAB"/>
<path d="M32.3229 64C49.996 64 64.3229 49.6731 64.3229 32C64.3229 14.3269 49.996 0 32.3229 0C14.6498 0 0.322876 14.3269 0.322876 32C0.322876 49.6731 14.6498 64 32.3229 64Z" fill="#335DAB"/>
<path d="M9.95422 41.0718L10.9484 38.0893C11.4455 38.6485 12.0979 38.866 12.6882 38.866C13.8999 38.866 14.6766 38.2136 14.6766 36.7534V22.4H18.3426V36.9087C18.3426 40.5436 16.23 42.097 13.1232 42.097C11.9736 42.1281 10.8552 41.8485 9.95422 41.0718Z" fill="white"/>
<path d="M21.2007 36.132V22.3689H24.8668V36.2873C24.8668 38.1825 25.5813 38.8349 26.7308 38.8349C27.8182 38.8349 28.5949 38.1825 28.5949 36.2873V22.3689H32.2609V36.132C32.2609 40.2951 29.6202 42.066 26.7619 42.066C23.9037 42.066 21.2007 40.264 21.2007 36.132Z" fill="white"/>
<path d="M33.5972 40.1708L35.1506 37.3126C35.9583 38.3378 37.2011 38.8349 38.3506 38.8349C39.5001 38.8349 40.3078 37.965 40.3078 36.7223C40.3078 33.3048 34.1564 33.3359 34.1564 27.4641C34.1564 24.5747 36.1447 22.0582 39.5311 22.0582C41.1777 22.0582 42.7001 22.6175 43.7253 23.6116L42.3273 26.4388C41.5816 25.6621 40.6807 25.3204 39.6554 25.3204C38.5991 25.3204 37.8535 26.0971 37.8535 27.2776C37.8535 30.2912 44.0049 30.6951 44.0049 36.5048C44.0049 39.767 41.8612 42.0971 38.568 42.0971C36.4554 42.066 34.8399 41.4136 33.5972 40.1708Z" fill="white"/>
<path d="M48.0436 41.7242V25.6H45.1232V22.3689H54.63V25.6H51.7096V41.7242H48.0436Z" fill="white"/>
</svg>
