<svg width="60" height="60" viewBox="0 0 60 60" fill="none" xmlns="http://www.w3.org/2000/svg">
<rect opacity="0.199451" width="60" height="60" rx="20" fill="#F4B483"/>
<path d="M26.5875 23.9619L26.4378 23.1252L26.5875 23.9619ZM27.2072 24.228L27.9086 23.748L27.2072 24.228ZM28.7637 34.6922L27.954 34.4336L28.7637 34.6922ZM19.1983 41.2814L19.299 42.1255L19.1983 41.2814ZM18.5681 40.9329L19.3278 40.5516L18.5681 40.9329ZM17.4655 30.8073L16.6409 30.6012L17.4655 30.8073ZM26.7372 24.7986C26.6346 24.8169 26.5472 24.7687 26.5057 24.7081L27.9086 23.748C27.586 23.2766 27.0171 23.0215 26.4378 23.1252L26.7372 24.7986ZM26.5057 24.7081C28.5778 27.7361 29.0586 30.9745 27.954 34.4336L29.5734 34.9508C30.8393 30.9868 30.2737 27.2041 27.9086 23.748L26.5057 24.7081ZM27.954 34.4336C26.8811 37.7933 24.0215 39.8501 19.0977 40.4374L19.299 42.1255C24.6311 41.4894 28.2304 39.1562 29.5734 34.9508L27.954 34.4336ZM19.0977 40.4374C19.2104 40.424 19.2954 40.4871 19.3278 40.5516L17.8084 41.3141C18.0826 41.8606 18.6685 42.2007 19.299 42.1255L19.0977 40.4374ZM19.3278 40.5516C17.8056 37.5183 17.4586 34.3407 18.2902 31.0134L16.6409 30.6012C15.7117 34.3191 16.102 37.9138 17.8084 41.3141L19.3278 40.5516ZM18.2902 31.0134C19.0889 27.8178 21.7834 25.685 26.7372 24.7986L26.4378 23.1252C21.1404 24.073 17.6675 26.4937 16.6409 30.6012L18.2902 31.0134Z" fill="#F4B483"/>
<path d="M19.0833 41.2857L26.5 24.5" stroke="#F4B483" stroke-width="1.4"/>
<path fill-rule="evenodd" clip-rule="evenodd" d="M40.7652 19.0075C40.9559 18.9739 41.1485 19.0552 41.261 19.2166C43.0358 21.7639 43.4544 24.5222 42.5062 27.4384C41.5398 30.4104 38.9562 32.1351 34.8539 32.6157C34.6468 32.64 34.4464 32.5311 34.3497 32.3418C33.0583 29.8143 32.7634 27.1538 33.4677 24.386C34.1977 21.5169 36.6647 19.7281 40.7652 19.0075Z" stroke="#F4B483" stroke-width="1.7" stroke-linecap="round" stroke-linejoin="round"/>
</svg>
