<svg width="60" height="60" viewBox="0 0 60 60" fill="none" xmlns="http://www.w3.org/2000/svg">
<rect opacity="0.199451" width="60" height="60" rx="20" fill="#36BF8A"/>
<path fill-rule="evenodd" clip-rule="evenodd" d="M33.2619 23.8791C33.2619 27.2191 30.0054 29.9274 30.0054 29.9274C30.0054 29.9274 26.75 27.2191 26.75 23.8791C26.75 20.5392 30.0054 17.8298 30.0054 17.8298C30.0054 17.8298 33.2619 20.5382 33.2619 23.8791Z" stroke="#36BF8A" stroke-width="1.71429" stroke-linecap="round" stroke-linejoin="round"/>
<path fill-rule="evenodd" clip-rule="evenodd" d="M38.8691 38.8833C35.5022 42.2557 29.9999 42.2048 29.9999 42.2048C29.9999 42.2048 29.949 36.6971 33.316 33.3301C36.683 29.9631 42.1906 30.0151 42.1906 30.0151C42.1906 30.0151 42.2351 35.5249 38.8691 38.8833V38.8833Z" stroke="#36BF8A" stroke-width="1.71429" stroke-linecap="round" stroke-linejoin="round"/>
<path fill-rule="evenodd" clip-rule="evenodd" d="M21.1253 38.8833C24.4923 42.2557 30 42.2048 30 42.2048C30 42.2048 30.0509 36.6971 26.6839 33.3301C23.3169 29.9631 17.8103 30.0151 17.8103 30.0151C17.8103 30.0151 17.7583 35.5249 21.1253 38.8833V38.8833Z" stroke="#36BF8A" stroke-width="1.71429" stroke-linecap="round" stroke-linejoin="round"/>
<path d="M30.0108 29.9241V42.2091" stroke="#36BF8A" stroke-width="1.71429" stroke-linecap="round" stroke-linejoin="round"/>
</svg>
