<svg width="16" height="21" viewBox="0 0 16 21" fill="none" xmlns="http://www.w3.org/2000/svg">
<path fill-rule="evenodd" clip-rule="evenodd" d="M11.9727 0.0111056C12.2615 -0.0388416 12.5532 0.0822466 12.7235 0.322793C15.4115 4.11922 16.0453 8.22999 14.6093 12.5761C13.1458 17.0054 9.23323 19.5757 3.02053 20.292C2.70688 20.3282 2.40348 20.166 2.257 19.8839C0.301194 16.117 -0.14543 12.1519 0.921174 8.02703C2.02685 3.75105 5.76289 1.08508 11.9727 0.0111056ZM13.2183 11.9075L5.50908 16.0007L4.26034 18.5568C8.91959 17.7411 11.8103 15.7018 13.0349 12.4425L13.0994 12.2652L13.1597 12.0886C13.1797 12.0282 13.1992 11.9678 13.2183 11.9075ZM10.7297 1.83417C5.98341 2.94544 3.24583 5.14393 2.3997 8.41615C1.56278 11.6528 1.74641 14.7535 2.95319 17.743L7.18327 9.08894L7.17613 9.07373L7.196 9.06325L10.7297 1.83417ZM13.8079 7.45204L8.33997 10.2096L6.65916 13.6478L13.6898 9.91544C13.819 9.08172 13.8584 8.26087 13.8079 7.45204ZM12.1943 2.32579L9.45797 7.9225L13.5849 5.84097C13.3266 4.64415 12.8632 3.4734 12.1943 2.32579Z" fill="#1F1B24"/>
</svg>
