<svg width="18" height="18" viewBox="0 0 18 18" fill="none" xmlns="http://www.w3.org/2000/svg">
<path fill-rule="evenodd" clip-rule="evenodd" d="M1.125 4.125C0.71079 4.125 0.375 3.78921 0.375 3.375V2.625C0.375 2.21079 0.71079 1.875 1.125 1.875H16.875C17.2892 1.875 17.625 2.21079 17.625 2.625V3.375C17.625 3.78921 17.2892 4.125 16.875 4.125H1.125ZM1.125 10.125C0.71079 10.125 0.375 9.78921 0.375 9.375V8.625C0.375 8.21079 0.71079 7.875 1.125 7.875H16.875C17.2892 7.875 17.625 8.21079 17.625 8.625V9.375C17.625 9.78921 17.2892 10.125 16.875 10.125H1.125ZM0.375 15.375C0.375 15.7892 0.71079 16.125 1.125 16.125H16.875C17.2892 16.125 17.625 15.7892 17.625 15.375V14.625C17.625 14.2108 17.2892 13.875 16.875 13.875H1.125C0.71079 13.875 0.375 14.2108 0.375 14.625V15.375Z" fill="white"/>
</svg>
