<svg width="47" height="50" viewBox="0 0 47 50" fill="none" xmlns="http://www.w3.org/2000/svg">
<path d="M0 39.6962V10.295C0 5.90814 0 3.71472 0.923251 2.41453C1.72909 1.27968 2.97149 0.532089 4.35159 0.351591C5.93277 0.144793 7.87076 1.17207 11.7467 3.22661L38.929 17.6352C43.181 19.889 45.307 21.016 46.0162 22.5289C46.6342 23.8472 46.6468 25.3694 46.0509 26.6977C45.3669 28.2223 43.2599 29.3844 39.046 31.7086L11.8637 46.7013L11.8637 46.7013C7.95888 48.8551 6.00646 49.932 4.40933 49.742C3.01574 49.5762 1.75598 48.8323 0.937741 47.6921C0 46.3854 0 44.1556 0 39.6962Z" fill="#15353D"/>
</svg>
