<svg width="14" height="14" viewBox="0 0 14 14" fill="none" xmlns="http://www.w3.org/2000/svg">
<g clip-path="url(#clip0_322_12)">
<path d="M7 0C5.61553 0 4.26216 0.410543 3.11101 1.17971C1.95987 1.94888 1.06266 3.04213 0.532846 4.32122C0.003033 5.6003 -0.13559 7.00776 0.134506 8.36563C0.404603 9.7235 1.07129 10.9708 2.05026 11.9497C3.02922 12.9287 4.2765 13.5954 5.63437 13.8655C6.99224 14.1356 8.3997 13.997 9.67879 13.4672C10.9579 12.9373 12.0511 12.0401 12.8203 10.889C13.5895 9.73785 14 8.38447 14 7C13.998 5.1441 13.2599 3.36479 11.9475 2.05247C10.6352 0.74015 8.8559 0.0020073 7 0V0ZM7 12.5008C5.91202 12.5009 4.84843 12.1784 3.94375 11.5741C3.03906 10.9697 2.33391 10.1106 1.91748 9.10548C1.50105 8.10035 1.39203 6.99429 1.60421 5.9272C1.8164 4.8601 2.34025 3.87989 3.10954 3.11053C3.87882 2.34117 4.85897 1.8172 5.92605 1.60491C6.99312 1.39261 8.09918 1.50151 9.10436 1.91784C10.1095 2.33416 10.9687 3.03922 11.5732 3.94384C12.1776 4.84846 12.5003 5.91201 12.5003 7C12.4986 8.45824 11.9185 9.85626 10.8874 10.8874C9.85626 11.9185 8.45824 12.4986 7 12.5002V12.5008Z" fill="#36BF8A"/>
<path d="M9.68856 6.24865L6.23173 4.52023C6.09624 4.44282 5.94239 4.40336 5.78636 4.40601C5.63034 4.40866 5.47791 4.45332 5.34513 4.53529C5.21235 4.61727 5.10413 4.73352 5.03184 4.87182C4.95956 5.01011 4.9259 5.16533 4.93439 5.32115V8.67765C4.92822 8.83291 4.96264 8.98709 5.03425 9.12498C5.10586 9.26288 5.21218 9.37972 5.34273 9.46398C5.47582 9.54598 5.62915 9.58921 5.78548 9.58882C5.93995 9.58715 6.09192 9.54961 6.22939 9.47915L9.68623 7.75073C9.83649 7.69084 9.96533 7.58726 10.0561 7.45337C10.1469 7.31948 10.1954 7.16145 10.1954 6.99969C10.1954 6.83794 10.1469 6.6799 10.0561 6.54601C9.96533 6.41212 9.83649 6.30854 9.68623 6.24865H9.68856Z" fill="#36BF8A"/>
</g>
<defs>
<clipPath id="clip0_322_12">
<rect width="14" height="14" fill="white"/>
</clipPath>
</defs>
</svg>
