<svg width="60" height="60" viewBox="0 0 60 60" fill="none" xmlns="http://www.w3.org/2000/svg">
<rect opacity="0.199451" width="60" height="60" rx="20" fill="#9AC78A"/>
<path d="M30.5764 21.1264V21.1264C29.1404 21.1264 27.9764 22.2905 27.9764 23.7264V23.7264V23.7264C27.974 25.5243 29.4295 26.9837 31.2274 26.9861C31.2274 26.9861 31.2274 26.9861 31.2274 26.9861V26.9861C33.4747 26.9867 35.2969 25.1655 35.2975 22.9182C35.2975 22.9179 35.2975 22.9175 35.2975 22.9172V22.9172C35.2975 20.1051 33.0179 17.8255 30.2059 17.8255L30.2059 17.8255C26.6944 17.8267 23.8488 20.6743 23.85 24.1857C23.85 24.1868 23.85 24.1879 23.85 24.189C23.85 24.189 23.85 27.8983 28.6166 31.0833C34.3648 34.915 31.2654 42.2102 31.2654 42.2102" stroke="#9AC78A" stroke-width="1.71429" stroke-linecap="round" stroke-linejoin="round"/>
<path d="M34.4146 32.4548L34.4146 32.4549C34.4158 33.9849 33.3497 35.3085 31.8546 35.6333" stroke="#9AC78A" stroke-width="1.71429" stroke-linecap="round" stroke-linejoin="round"/>
<path d="M36.4166 38.9558V38.9558C35.5192 40.5104 33.5316 41.0431 31.9771 40.1457C31.9435 40.1263 31.9103 40.1063 31.8774 40.0858" stroke="#9AC78A" stroke-width="1.71429" stroke-linecap="round" stroke-linejoin="round"/>
</svg>
